<svg width="32" height="32" viewBox="0 0 32 32" fill="none" xmlns="http://www.w3.org/2000/svg">
<path d="M1.33334 21.3335V18.6668C1.33334 18.2891 1.46134 17.9726 1.71734 17.7175C1.97334 17.4624 2.28979 17.3344 2.66668 17.3335H12.2667L4.00001 10.8002V13.3335C4.00001 13.7113 3.87201 14.0282 3.61601 14.2842C3.36001 14.5402 3.04357 14.6677 2.66668 14.6668C2.28979 14.6659 1.97334 14.5379 1.71734 14.2828C1.46134 14.0277 1.33334 13.7113 1.33334 13.3335V8.20016C1.33334 7.68905 1.55023 7.30594 1.98401 7.05083C2.41779 6.79572 2.85645 6.78994 3.30001 7.0335L17.3333 14.7335V6.66683C17.3333 6.28905 17.4613 5.97261 17.7173 5.7175C17.9733 5.46239 18.2898 5.33438 18.6667 5.3335H22.7667C23.1667 5.3335 23.5445 5.41705 23.9 5.58416C24.2556 5.75127 24.5556 5.98994 24.8 6.30016L30.0333 12.6002C30.2333 12.8446 30.3889 13.1113 30.5 13.4002C30.6111 13.6891 30.6667 13.9891 30.6667 14.3002V21.3335C30.6667 21.7113 30.5391 22.0282 30.284 22.2842C30.0289 22.5402 29.712 22.6677 29.3333 22.6668H27.3333C27.3333 23.7779 26.9445 24.7224 26.1667 25.5002C25.3889 26.2779 24.4445 26.6668 23.3333 26.6668C22.2222 26.6668 21.2778 26.2779 20.5 25.5002C19.7222 24.7224 19.3333 23.7779 19.3333 22.6668H12C12 23.7779 11.6111 24.7224 10.8333 25.5002C10.0556 26.2779 9.11112 26.6668 8.00001 26.6668C6.8889 26.6668 5.94445 26.2779 5.16668 25.5002C4.3889 24.7224 4.00001 23.7779 4.00001 22.6668H2.66668C2.2889 22.6668 1.97245 22.5388 1.71734 22.2828C1.46223 22.0268 1.33423 21.7104 1.33334 21.3335ZM8.00001 24.6668C8.57779 24.6668 9.05556 24.4779 9.43334 24.1002C9.81112 23.7224 10 23.2446 10 22.6668C10 22.0891 9.81112 21.6113 9.43334 21.2335C9.05556 20.8557 8.57779 20.6668 8.00001 20.6668C7.42223 20.6668 6.94445 20.8557 6.56668 21.2335C6.1889 21.6113 6.00001 22.0891 6.00001 22.6668C6.00001 23.2446 6.1889 23.7224 6.56668 24.1002C6.94445 24.4779 7.42223 24.6668 8.00001 24.6668ZM23.3333 24.6668C23.9111 24.6668 24.3889 24.4779 24.7667 24.1002C25.1445 23.7224 25.3333 23.2446 25.3333 22.6668C25.3333 22.0891 25.1445 21.6113 24.7667 21.2335C24.3889 20.8557 23.9111 20.6668 23.3333 20.6668C22.7556 20.6668 22.2778 20.8557 21.9 21.2335C21.5222 21.6113 21.3333 22.0891 21.3333 22.6668C21.3333 23.2446 21.5222 23.7224 21.9 24.1002C22.2778 24.4779 22.7556 24.6668 23.3333 24.6668ZM20 13.3335H27.2L22.7333 8.00016H20V13.3335Z" fill="#FF771C"/>
</svg>
