<svg width="32" height="32" viewBox="0 0 32 32" fill="none" xmlns="http://www.w3.org/2000/svg">
    <path fill-rule="evenodd" clip-rule="evenodd"
        d="M22.2313 6.02979C26.4688 6.02979 29.7091 10.5663 29.7091 16.0002V22.2317C29.7091 22.5622 29.5778 22.8792 29.3441 23.113C29.1104 23.3467 28.7934 23.478 28.4628 23.478H27.0034C26.7454 24.2069 26.2679 24.8379 25.6365 25.2842C25.0051 25.7305 24.2509 25.9701 23.4776 25.9701C22.7044 25.9701 21.9502 25.7305 21.3188 25.2842C20.6874 24.8379 20.2099 24.2069 19.9519 23.478H12.0478C11.7898 24.2069 11.3122 24.8379 10.6808 25.2842C10.0494 25.7305 9.29524 25.9701 8.52203 25.9701C7.74883 25.9701 6.99462 25.7305 6.36322 25.2842C5.73182 24.8379 5.25425 24.2069 4.99625 23.478H3.53683C3.20629 23.478 2.88929 23.3467 2.65556 23.113C2.42183 22.8792 2.29053 22.5622 2.29053 22.2317V8.52239C2.29053 7.86131 2.55314 7.2273 3.02059 6.75985C3.48805 6.2924 4.12205 6.02979 4.78313 6.02979H22.2313ZM22.5305 8.5361L23.8615 14.7539H27.1468C26.7567 11.3191 24.785 8.74672 22.5305 8.5361ZM8.52203 8.52239H4.78313V12.8201H8.52203V8.52239ZM14.7535 8.52239H11.0146V12.8201H14.7535V8.52239ZM19.9768 8.52239H17.2461V12.8201H20.7782L19.9768 8.52239ZM10.5981 22.5791C10.5981 23.7495 9.64937 24.6983 8.479 24.6983C7.30863 24.6983 6.35986 23.7495 6.35986 22.5791C6.35986 21.4088 7.30863 20.46 8.479 20.46C9.64937 20.46 10.5981 21.4088 10.5981 22.5791ZM23.4514 24.7128C24.6233 24.7128 25.5732 23.7628 25.5732 22.591C25.5732 21.4191 24.6233 20.4692 23.4514 20.4692C22.2796 20.4692 21.3296 21.4191 21.3296 22.591C21.3296 23.7628 22.2796 24.7128 23.4514 24.7128Z"
        fill="#FF771C" />
</svg>
    