<svg width="32" height="32" viewBox="0 0 32 32" fill="none" xmlns="http://www.w3.org/2000/svg">
<path d="M28.3101 22.1471C28.7984 21.9241 29.6655 21.5654 29.9557 21.1138C30.2459 20.6622 30.4001 20.1367 30.4001 19.5999V17.6591C30.4002 16.7776 30.1092 15.9207 29.5722 15.2217C29.0351 14.5227 28.2822 14.0206 27.4305 13.7935L24.0817 12.9007L21.6145 8.4575C21.268 7.83375 20.761 7.31404 20.146 6.95225C19.531 6.59045 18.8304 6.39975 18.1169 6.3999H11.1073C10.2676 6.39987 9.44914 6.6641 8.76797 7.15517C8.0868 7.64623 7.57745 8.33921 7.3121 9.1359L5.9953 13.0847C5.18443 13.3408 2.87629 13.8487 2.37366 14.5346C1.87103 15.2205 1.60006 16.0487 1.6001 16.8991V19.5999C1.6001 20.7311 4.48378 21.3718 5.44858 21.8134C5.57671 22.7495 6.06699 23.9438 6.7689 24.5762C7.47082 25.2087 8.37397 25.5723 9.31833 25.6026C10.2627 25.6329 11.1873 25.3279 11.9283 24.7417C12.6693 24.1555 13.1788 23.3259 13.3667 22.3999H20.4269C20.6147 23.3259 21.1243 24.1555 21.8653 24.7417C22.6063 25.3279 23.5309 25.6329 24.4752 25.6026C25.4196 25.5723 26.3227 25.2087 27.0247 24.5762C27.7266 23.9438 28.1819 23.0832 28.3101 22.1471ZM11.1073 7.9999H13.6241V12.7999H7.7761L8.8289 9.6415C8.98818 9.16328 9.29398 8.74734 9.70294 8.45269C10.1119 8.15803 10.6032 7.99961 11.1073 7.9999ZM20.2145 9.2351L22.1969 12.7999H15.2241V7.9999H18.1169C18.5449 8.00004 18.9651 8.11464 19.3339 8.33183C19.7027 8.54901 20.0068 8.86088 20.2145 9.2351ZM7.04669 21.5999C7.04669 21.2847 7.10876 20.9726 7.22938 20.6815C7.34999 20.3903 7.52677 20.1257 7.74963 19.9028C7.97249 19.68 8.23706 19.5032 8.52825 19.3826C8.81943 19.262 9.13151 19.1999 9.44669 19.1999C9.76186 19.1999 10.0739 19.262 10.3651 19.3826C10.6563 19.5032 10.9209 19.68 11.1437 19.9028C11.3666 20.1257 11.5434 20.3903 11.664 20.6815C11.7846 20.9726 11.8467 21.2847 11.8467 21.5999C11.8467 22.2364 11.5938 22.8469 11.1437 23.297C10.6937 23.747 10.0832 23.9999 9.44669 23.9999C8.81017 23.9999 8.19972 23.747 7.74963 23.297C7.29954 22.8469 7.04669 22.2364 7.04669 21.5999ZM21.9469 21.5999C21.9469 20.9634 22.1997 20.3529 22.6498 19.9028C23.0999 19.4528 23.7104 19.1999 24.3469 19.1999C24.9834 19.1999 25.5938 19.4528 26.0439 19.9028C26.494 20.3529 26.7469 20.9634 26.7469 21.5999C26.7469 22.2364 26.494 22.8469 26.0439 23.297C25.5938 23.747 24.9834 23.9999 24.3469 23.9999C23.7104 23.9999 23.0999 23.747 22.6498 23.297C22.1997 22.8469 21.9469 22.2364 21.9469 21.5999Z" fill="currentColor"/>
</svg>
