<svg width="32" height="32" viewBox="0 0 32 32" fill="none" xmlns="http://www.w3.org/2000/svg">
<path d="M23.1711 24.1244C22.6956 24.1244 22.2395 23.9269 21.9033 23.5753C21.5671 23.2236 21.3782 22.7467 21.3782 22.2495C21.3782 21.7522 21.5671 21.2753 21.9033 20.9237C22.2395 20.5721 22.6956 20.3745 23.1711 20.3745C23.6466 20.3745 24.1026 20.5721 24.4388 20.9237C24.7751 21.2753 24.964 21.7522 24.964 22.2495C24.964 22.7467 24.7751 23.2236 24.4388 23.5753C24.1026 23.9269 23.6466 24.1244 23.1711 24.1244ZM24.964 12.8748L27.3067 15.9997H21.9758V12.8748M8.82788 24.1244C8.35238 24.1244 7.89635 23.9269 7.56011 23.5753C7.22388 23.2236 7.03499 22.7467 7.03499 22.2495C7.03499 21.7522 7.22388 21.2753 7.56011 20.9237C7.89635 20.5721 8.35238 20.3745 8.82788 20.3745C9.30339 20.3745 9.75942 20.5721 10.0957 20.9237C10.4319 21.2753 10.6208 21.7522 10.6208 22.2495C10.6208 22.7467 10.4319 23.2236 10.0957 23.5753C9.75942 23.9269 9.30339 24.1244 8.82788 24.1244ZM25.5616 10.9998H21.9758V6H5.24209C3.91535 6 2.85156 7.11246 2.85156 8.49992V22.2495H5.24209C5.24209 23.244 5.61988 24.1978 6.29235 24.901C6.96481 25.6043 7.87687 25.9993 8.82788 25.9993C9.7789 25.9993 10.691 25.6043 11.3634 24.901C12.0359 24.1978 12.4137 23.244 12.4137 22.2495H19.5853C19.5853 23.244 19.9631 24.1978 20.6355 24.901C21.308 25.6043 22.22 25.9993 23.1711 25.9993C24.1221 25.9993 25.0341 25.6043 25.7066 24.901C26.3791 24.1978 26.7568 23.244 26.7568 22.2495H29.1474V15.9997L25.5616 10.9998Z" fill="currentColor"/>
</svg>

