<svg width="32" height="32" viewBox="0 0 32 32" fill="none" xmlns="http://www.w3.org/2000/svg">
<path d="M10.3333 5.33325C9.78106 5.33325 9.33334 5.78097 9.33334 6.33325V6.99992C9.33334 7.5522 9.78106 7.99992 10.3333 7.99992H13.3333V10.6666H9.74756C9.48234 10.6666 9.22799 10.7719 9.04045 10.9595L6.95957 13.0404C6.77203 13.2279 6.66668 13.4822 6.66668 13.7475V17.3333H4.00001V14.3333C4.00001 13.781 3.55229 13.3333 3.00001 13.3333H2.33334C1.78106 13.3333 1.33334 13.781 1.33334 14.3333V22.9999C1.33334 23.5522 1.78106 23.9999 2.33334 23.9999H3.00001C3.55229 23.9999 4.00001 23.5522 4.00001 22.9999V19.9999H6.66668V22.9999C6.66668 23.5522 7.11439 23.9999 7.66668 23.9999H10.2525C10.5177 23.9999 10.772 24.1053 10.9596 24.2928L13.0404 26.3737C13.228 26.5612 13.4823 26.6666 13.7476 26.6666H23C23.5523 26.6666 24 26.2189 24 25.6666V21.3333H26.6667V24.3333C26.6667 24.8855 27.1144 25.3333 27.6667 25.3333H29.6667C30.219 25.3333 30.6667 24.8855 30.6667 24.3333V12.9999C30.6667 12.4476 30.219 11.9999 29.6667 11.9999H27.6667C27.1144 11.9999 26.6667 12.4476 26.6667 12.9999V15.9999H24V11.6666C24 11.1143 23.5523 10.6666 23 10.6666H16V7.99992H19C19.5523 7.99992 20 7.5522 20 6.99992V6.33325C20 5.78097 19.5523 5.33325 19 5.33325H10.3333Z" fill="#F4F4F4"/>
</svg>
