<svg width="40" height="40" viewBox="0 0 40 40" fill="none" xmlns="http://www.w3.org/2000/svg">
<path d="M21.659 13.5084C22.2551 12.8625 22.5532 12.5395 22.8699 12.3511C23.6342 11.8966 24.5753 11.8825 25.3523 12.3139C25.6743 12.4926 25.9816 12.8065 26.596 13.4342C27.2105 14.0619 27.5177 14.3758 27.6928 14.7047C28.1151 15.4985 28.1012 16.4598 27.6563 17.2406C27.4719 17.5641 27.1557 17.8686 26.5234 18.4776L19.0005 25.7234C17.8023 26.8775 17.2032 27.4545 16.4544 27.747C15.7057 28.0394 14.8826 28.0179 13.2363 27.9749L13.0123 27.969C12.5111 27.9559 12.2605 27.9494 12.1149 27.784C11.9692 27.6187 11.9891 27.3635 12.0289 26.8529L12.0505 26.5757C12.1624 25.1388 12.2184 24.4204 12.499 23.7746C12.7796 23.1288 13.2635 22.6044 14.2315 21.5556L21.659 13.5084Z" stroke="#F4F4F4" stroke-width="1.4" stroke-linejoin="round"/>
<path d="M20.8 13.5996L26.4 19.1996" stroke="#F4F4F4" stroke-width="1.4" stroke-linejoin="round"/>
<path d="M21.6001 28L28.0001 28" stroke="#F4F4F4" stroke-width="1.4" stroke-linecap="round" stroke-linejoin="round"/>
</svg>
