<svg width="32" height="32" viewBox="0 0 32 32" fill="none" xmlns="http://www.w3.org/2000/svg">
    <path
        d="M9.55778 4.35742C8.86889 4.35754 8.20236 4.60199 7.67675 5.0473C7.15114 5.49261 6.80051 6.10992 6.68723 6.78943L5.62517 13.1735C4.54606 13.8028 3.63482 14.6834 2.96884 15.7403C2.30287 16.7972 1.90185 17.9993 1.79985 19.2444C1.69784 20.4894 1.89787 21.7407 2.38294 22.8919C2.86801 24.0432 3.62378 25.0603 4.58606 25.8569C5.54833 26.6535 6.68868 27.2061 7.91022 27.4677C9.13175 27.7294 10.3984 27.6923 11.6025 27.3596C12.8067 27.0269 13.9127 26.4086 14.8267 25.557C15.7407 24.7054 16.4357 23.6458 16.8525 22.4681H21.2198C21.1896 22.6794 21.1745 22.895 21.1745 23.1149C21.1744 23.8575 21.3569 24.5887 21.706 25.2441C22.0551 25.8995 22.5601 26.459 23.1764 26.8732C23.7927 27.2875 24.5014 27.5438 25.2401 27.6196C25.9788 27.6954 26.7248 27.5883 27.4123 27.3078C28.0999 27.0273 28.7079 26.5821 29.1828 26.0112C29.6578 25.4403 29.985 24.7614 30.1357 24.0343C30.2863 23.3072 30.2559 22.5542 30.0469 21.8416C29.838 21.129 29.457 20.4788 28.9375 19.9482V16.3234C28.9375 15.7713 28.8288 15.2246 28.6175 14.7145C28.4062 14.2044 28.0965 13.741 27.7061 13.3506C27.3157 12.9602 26.8522 12.6505 26.3422 12.4392C25.8321 12.2279 25.2854 12.1192 24.7333 12.1192H23.1149V9.20851C23.1149 8.95119 23.0127 8.70441 22.8308 8.52246C22.6488 8.34051 22.402 8.23829 22.1447 8.23829C21.8874 8.23829 21.6406 8.34051 21.4587 8.52246C21.2767 8.70441 21.1745 8.95119 21.1745 9.20851V12.1192H18.4385L17.5524 6.78943C17.439 6.10948 17.088 5.49183 16.5619 5.04646C16.0357 4.6011 15.3686 4.35692 14.6792 4.35742H9.55778ZM9.58106 12.1192C8.95826 12.1145 8.33717 12.1849 7.73118 12.3287L8.60179 7.10896C8.63947 6.8823 8.75637 6.67637 8.93167 6.52784C9.10698 6.37931 9.3293 6.29781 9.55907 6.29786H14.6792C14.909 6.29781 15.1313 6.37931 15.3066 6.52784C15.4819 6.67637 15.5988 6.8823 15.6365 7.10896L16.4722 12.1192H9.58106ZM25.7022 20.5277C26.3884 20.5277 27.0464 20.8003 27.5316 21.2855C28.0168 21.7707 28.2894 22.4288 28.2894 23.1149C28.2894 23.8011 28.0168 24.4592 27.5316 24.9444C27.0464 25.4296 26.3884 25.7022 25.7022 25.7022C25.016 25.7022 24.3579 25.4296 23.8727 24.9444C23.3875 24.4592 23.1149 23.8011 23.1149 23.1149C23.1149 22.4288 23.3875 21.7707 23.8727 21.2855C24.3579 20.8003 25.016 20.5277 25.7022 20.5277ZM3.71061 19.8809C3.71061 19.1164 3.86118 18.3594 4.15373 17.6532C4.44627 16.9469 4.87507 16.3052 5.41563 15.7646C5.95618 15.2241 6.59792 14.7953 7.30419 14.5027C8.01046 14.2102 8.76744 14.0596 9.5319 14.0596C10.2964 14.0596 11.0533 14.2102 11.7596 14.5027C12.4659 14.7953 13.1076 15.2241 13.6482 15.7646C14.1887 16.3052 14.6175 16.9469 14.9101 17.6532C15.2026 18.3594 15.3532 19.1164 15.3532 19.8809C15.3532 21.4248 14.7399 22.9055 13.6482 23.9972C12.5565 25.0889 11.0758 25.7022 9.5319 25.7022C7.988 25.7022 6.50733 25.0889 5.41563 23.9972C4.32392 22.9055 3.71061 21.4248 3.71061 19.8809Z"
        fill="#FF771C" />
</svg>

    