<svg width="24" height="24" viewBox="0 0 24 24" fill="none" xmlns="http://www.w3.org/2000/svg">
<path d="M9.9042 3.59265L6.02258 6.23329C4.78821 7.07383 4.17055 7.49411 3.83527 8.13254C3.5 8.77098 3.5 9.53031 3.5 11.0461V17.5901C3.5 19.4072 3.5 20.3157 4.05344 20.8805C4.60688 21.4453 5.49653 21.4443 7.27773 21.4443H16.7221C18.5033 21.4443 19.3929 21.4443 19.9464 20.8796C20.4998 20.3148 20.4998 19.4062 20.4998 17.5892V11.0442C20.4998 9.53031 20.4998 8.77193 20.1645 8.13254C19.8293 7.49411 19.2116 7.07383 17.9763 6.23329L14.0947 3.59265C13.0803 2.90133 12.5732 2.55566 11.9999 2.55566C11.4266 2.55566 10.9204 2.90133 9.9042 3.59265Z" stroke="#818B93" stroke-width="1.5" stroke-linecap="round" stroke-linejoin="round"/>
<path d="M7.27783 21.4438V14.8328C7.27783 13.0516 7.27783 12.162 7.83127 11.6085C8.38471 11.0551 9.27436 11.0551 11.0556 11.0551H12.9444C14.7256 11.0551 15.6153 11.0551 16.1687 11.6085C16.7222 12.162 16.7222 13.0516 16.7222 14.8328V21.4438M7.27783 13.8884H16.7222M7.27783 17.6661H16.7222M12.0076 7.27734H11.9991" stroke="#818B93" stroke-width="1.5" stroke-linecap="round" stroke-linejoin="round"/>
</svg>
