<svg width="32" height="32" viewBox="0 0 32 32" fill="none" xmlns="http://www.w3.org/2000/svg">
    <path
        d="M30.99 15.5354C30.8581 15.4682 20.7199 10.2215 20.7199 10.2215L18.1458 6.84297L17.9865 6.80521C17.6351 6.47689 17.2799 6.50697 16.6399 6.86537V6.87305C16.6399 7.14185 16.4978 7.53801 16.6751 7.85993L18.6463 10.3707L18.6853 10.3937L17.1173 14.0929C17.1173 14.0929 15.8162 15.8977 12.2738 15.8977C8.73144 15.8977 7.91255 14.8471 7.91255 14.8471H5.74374L4.33013 14.0929H3.52175L1.85141 20.1019L2.04917 20.0353C2.76257 19.6977 3.54155 19.5214 4.33077 19.5188C5.1144 19.521 5.88809 19.6944 6.59765 20.027C7.04501 20.2356 7.53653 20.3406 8.01333 20.3406C8.49397 20.3406 8.97781 20.2356 9.41813 20.0347C10.1315 19.6971 10.9105 19.5208 11.6997 19.5182C12.4806 19.5195 13.2515 19.6931 13.9577 20.0263C14.4121 20.235 14.9036 20.3399 15.381 20.3399C15.8649 20.3399 16.3417 20.235 16.789 20.034C17.5007 19.6974 18.2937 19.5175 19.0706 19.5175C19.8476 19.5175 20.6329 19.6967 21.3298 20.0257C21.4988 20.0999 21.6825 20.1524 21.8655 20.2049C24.6898 19.4484 29.6927 17.9924 31.0418 16.7591C31.4373 16.402 31.5116 15.7966 30.99 15.5354ZM0.639893 25.4235C1.2684 25.422 1.88914 25.2845 2.45941 25.0203C3.02389 24.7508 3.66261 24.5947 4.33013 24.5947C4.99765 24.5947 5.62869 24.7508 6.20085 25.0203C6.75061 25.2743 7.36693 25.4235 8.01269 25.4235C8.6399 25.4215 9.25927 25.2839 9.82837 25.0203C10.4125 24.741 11.0516 24.5956 11.6991 24.5947C12.3596 24.5947 12.9977 24.7508 13.5679 25.0203C14.1183 25.2737 14.7346 25.4235 15.3804 25.4235C16.0086 25.4209 16.6288 25.2834 17.1993 25.0203C17.7836 24.7409 18.4229 24.5955 19.0706 24.5947C19.7305 24.5947 20.3692 24.7508 20.9337 25.0203C21.4905 25.2743 22.1068 25.4235 22.7519 25.4235C23.3983 25.4235 24.014 25.2743 24.5644 25.0203C25.1492 24.743 25.7879 24.5977 26.4351 24.5947C27.102 24.5947 27.7189 24.7508 28.2828 25.0203C28.8332 25.2743 29.4399 25.4235 30.0799 25.4235V22.6503C29.4399 22.6503 28.8332 22.5025 28.2821 22.2478C27.7019 21.9704 27.0667 21.8272 26.4236 21.8286C25.7637 21.8286 25.1308 21.9777 24.5586 22.2478C23.9919 22.5124 23.3741 22.6497 22.7487 22.6503C22.1211 22.6487 21.5013 22.5114 20.9317 22.2478C20.3499 21.9711 19.7136 21.8279 19.0693 21.8286C18.4012 21.8286 17.7637 21.9777 17.198 22.2478C16.628 22.5116 16.0078 22.6489 15.3797 22.6503C14.7536 22.65 14.1352 22.5126 13.5679 22.2478C12.9838 21.971 12.3454 21.8278 11.6991 21.8286C11.0521 21.8275 10.413 21.9707 9.82837 22.2478C9.25922 22.5112 8.63986 22.6485 8.01269 22.6503C7.3866 22.65 6.76817 22.5126 6.20085 22.2478C5.62869 21.9777 4.99765 21.8286 4.33013 21.8286C3.66261 21.8286 3.02389 21.9777 2.45941 22.2478C1.88909 22.5118 1.26835 22.6491 0.639893 22.6503V25.4235Z"
        fill="#FF771C" />
</svg>
    