<svg width="12" height="12" viewBox="0 0 12 12" fill="none" xmlns="http://www.w3.org/2000/svg">
<g clip-path="url(#clip0_4261_10028)">
<path d="M6.82826 10.694C6.60624 10.8975 6.30948 11.0112 6.00064 11.0112C5.6918 11.0112 5.39504 10.8975 5.17302 10.694C3.13985 8.8192 0.415157 6.72488 1.74391 3.68429C2.46235 2.04027 4.18694 0.988281 6.00064 0.988281C7.81434 0.988281 9.53892 2.04027 10.2574 3.68429C11.5844 6.72104 8.86644 8.82566 6.82826 10.694Z" stroke="#9FA7AD"/>
<path d="M7.56918 5.41679C7.56918 6.28341 6.86666 6.98593 6.00005 6.98593C5.13344 6.98593 4.43091 6.28341 4.43091 5.41679C4.43091 4.55018 5.13344 3.84766 6.00005 3.84766C6.86666 3.84766 7.56918 4.55018 7.56918 5.41679Z" stroke="#9FA7AD"/>
</g>
<defs>
<clipPath id="clip0_4261_10028">
<rect width="12" height="12" fill="white"/>
</clipPath>
</defs>
</svg>
