<svg width="32" height="32" viewBox="0 0 32 32" fill="none" xmlns="http://www.w3.org/2000/svg">
<path d="M26.9963 15.4737C26.7199 15.4743 26.444 15.4985 26.1714 15.546L25.444 13.5539C25.9531 13.4309 26.4739 13.3686 26.9963 13.3684C27.2615 13.3684 27.5158 13.2575 27.7033 13.0601C27.8909 12.8627 27.9962 12.595 27.9962 12.3158C27.9962 12.0366 27.8909 11.7689 27.7033 11.5715C27.5158 11.3741 27.2615 11.2632 26.9963 11.2632H24.6065L22.9305 6.675C22.8579 6.4763 22.7298 6.30542 22.5632 6.18491C22.3965 6.06441 22.199 5.99993 21.9968 6H17.9972C17.732 6 17.4777 6.1109 17.2902 6.30831C17.1026 6.50572 16.9973 6.77346 16.9973 7.05263C16.9973 7.33181 17.1026 7.59955 17.2902 7.79695C17.4777 7.99436 17.732 8.10526 17.9972 8.10526H21.3106L22.4642 11.2632H18.9971C16.6848 11.2632 14.81 11.8303 13.5764 12.9026C13.2861 13.1492 12.9361 13.3053 12.5659 13.3534C12.1957 13.4016 11.8201 13.3398 11.4816 13.175C10.1592 12.5421 2.32125 9.21184 2.25751 9.19342C2.00841 9.11634 1.74061 9.14428 1.51073 9.27134C1.28086 9.39839 1.10694 9.61459 1.02576 9.87421C0.944583 10.1338 0.962514 10.4165 1.07576 10.6625C1.18901 10.9084 1.38869 11.0984 1.63257 11.1921C1.63257 11.1921 8.56938 14.0789 9.94799 15.5263C11.019 16.6492 11.7135 18.1088 11.9265 19.6842H9.89799C9.6502 18.4063 8.9605 17.2707 7.9626 16.4977C6.9647 15.7247 5.72969 15.3692 4.49701 15.5003C3.26433 15.6314 2.12179 16.2397 1.29091 17.2072C0.460034 18.1747 0 19.4325 0 20.7368C0 22.0411 0.460034 23.299 1.29091 24.2665C2.12179 25.234 3.26433 25.8422 4.49701 25.9733C5.72969 26.1044 6.9647 25.749 7.9626 24.976C8.9605 24.203 9.6502 23.0674 9.89799 21.7895H16.4123C17.2796 21.7915 18.1238 21.4958 18.8171 20.9474C19.5104 20.3989 20.015 19.6275 20.2545 18.75C20.5039 17.8166 20.9258 16.9442 21.4961 16.1829C22.0664 15.4215 22.7739 14.7861 23.5779 14.3132L24.3053 16.3039C23.2919 16.9868 22.5464 18.0315 22.2056 19.2464C21.8649 20.4613 21.9518 21.7647 22.4503 22.9176C22.9489 24.0705 23.8257 24.9953 24.9198 25.5225C26.0139 26.0497 27.2519 26.1438 28.4066 25.7875C29.5613 25.4313 30.5552 24.6486 31.2059 23.5831C31.8566 22.5175 32.1204 21.2407 31.949 19.9869C31.7775 18.7331 31.1823 17.5865 30.2726 16.7575C29.3628 15.9284 28.1996 15.4726 26.9963 15.4737ZM4.99848 21.7895H7.8257C7.58983 22.4918 7.1257 23.0837 6.51535 23.4607C5.905 23.8376 5.18773 23.9752 4.4903 23.8492C3.79287 23.7233 3.1602 23.3418 2.70411 22.7723C2.24801 22.2027 1.99785 21.4818 1.99785 20.7368C1.99785 19.9919 2.24801 19.2709 2.70411 18.7014C3.1602 18.1319 3.79287 17.7504 4.4903 17.6244C5.18773 17.4984 5.905 17.6361 6.51535 18.013C7.1257 18.3899 7.58983 18.9819 7.8257 19.6842H4.99848C4.73329 19.6842 4.47896 19.7951 4.29145 19.9925C4.10393 20.1899 3.99858 20.4577 3.99858 20.7368C3.99858 21.016 4.10393 21.2837 4.29145 21.4812C4.47896 21.6786 4.73329 21.7895 4.99848 21.7895ZM26.9963 23.8947C26.3836 23.8939 25.7858 23.6956 25.2833 23.3265C24.7808 22.9573 24.3978 22.435 24.1857 21.8299C23.9737 21.2247 23.9427 20.5657 24.097 19.9414C24.2514 19.3172 24.5836 18.7577 25.049 18.3382L26.0626 21.1145C26.1578 21.3751 26.3474 21.5854 26.5898 21.6989C26.8321 21.8124 27.1074 21.8199 27.355 21.7197C27.6026 21.6196 27.8023 21.42 27.9101 21.1648C28.018 20.9097 28.0251 20.6199 27.93 20.3592L26.9151 17.5789H26.9963C27.7919 17.5789 28.5549 17.9116 29.1174 18.5039C29.68 19.0961 29.996 19.8993 29.996 20.7368C29.996 21.5744 29.68 22.3776 29.1174 22.9698C28.5549 23.562 27.7919 23.8947 26.9963 23.8947Z" fill="currentColor"/>
</svg>

