<svg width="32" height="32" viewBox="0 0 32 32" fill="none" xmlns="http://www.w3.org/2000/svg">
    <path d="M7.70371 17.3212L9.48149 11.9158H22.5185L24.2963 17.3212M22.5185 23.3272C22.047 23.3272 21.5948 23.1373 21.2614 22.7994C20.9281 22.4615 20.7408 22.0032 20.7408 21.5254C20.7408 21.0475 20.9281 20.5892 21.2614 20.2513C21.5948 19.9134 22.047 19.7236 22.5185 19.7236C22.99 19.7236 23.4422 19.9134 23.7756 20.2513C24.109 20.5892 24.2963 21.0475 24.2963 21.5254C24.2963 22.0032 24.109 22.4615 23.7756 22.7994C23.4422 23.1373 22.99 23.3272 22.5185 23.3272ZM9.48149 23.3272C9.01 23.3272 8.55781 23.1373 8.22441 22.7994C7.89101 22.4615 7.70371 22.0032 7.70371 21.5254C7.70371 21.0475 7.89101 20.5892 8.22441 20.2513C8.55781 19.9134 9.01 19.7236 9.48149 19.7236C9.95299 19.7236 10.4052 19.9134 10.7386 20.2513C11.072 20.5892 11.2593 21.0475 11.2593 21.5254C11.2593 22.0032 11.072 22.4615 10.7386 22.7994C10.4052 23.1373 9.95299 23.3272 9.48149 23.3272ZM24.2015 11.3152C23.9645 10.6185 23.3007 10.114 22.5185 10.114H9.48149C8.69927 10.114 8.03557 10.6185 7.79853 11.3152L5.33334 18.5224V28.132C5.33334 28.4505 5.45821 28.7561 5.68048 28.9813C5.90274 29.2066 6.2042 29.3332 6.51853 29.3332H7.70371C8.01804 29.3332 8.3195 29.2066 8.54177 28.9813C8.76403 28.7561 8.8889 28.4505 8.8889 28.132V26.9308H23.1111V28.132C23.1111 28.4505 23.236 28.7561 23.4583 28.9813C23.6805 29.2066 23.982 29.3332 24.2963 29.3332H25.4815C25.7958 29.3332 26.0973 29.2066 26.3195 28.9813C26.5418 28.7561 26.6667 28.4505 26.6667 28.132V18.5224M10.0741 7.71155C10.5456 7.71155 10.9978 7.52172 11.3312 7.18381C11.6646 6.84591 11.8519 6.38761 11.8519 5.90975C11.8519 4.70855 10.0741 2.6665 10.0741 2.6665C10.0741 2.6665 8.29631 4.70855 8.29631 5.90975C8.29631 6.38761 8.48361 6.84591 8.81701 7.18381C9.1504 7.52172 9.60259 7.71155 10.0741 7.71155ZM16 7.71155C16.4715 7.71155 16.9237 7.52172 17.2571 7.18381C17.5905 6.84591 17.7778 6.38761 17.7778 5.90975C17.7778 4.70855 16 2.6665 16 2.6665C16 2.6665 14.2222 4.70855 14.2222 5.90975C14.2222 6.38761 14.4095 6.84591 14.7429 7.18381C15.0763 7.52172 15.5285 7.71155 16 7.71155ZM21.9259 7.71155C22.3974 7.71155 22.8496 7.52172 23.183 7.18381C23.5164 6.84591 23.7037 6.38761 23.7037 5.90975C23.7037 4.70855 21.9259 2.6665 21.9259 2.6665C21.9259 2.6665 20.1482 4.70855 20.1482 5.90975C20.1482 6.38761 20.3355 6.84591 20.6689 7.18381C21.0023 7.52172 21.4544 7.71155 21.9259 7.71155Z" fill="#FF771C"/>
    </svg>
    