<svg width="16" height="16" viewBox="0 0 16 16" fill="none" xmlns="http://www.w3.org/2000/svg">
<path d="M1.46772 8.06377C1.70201 8.29806 1.9363 8.37177 2.39858 8.37177L7.46772 8.39863C7.51458 8.39863 7.55458 8.39863 7.57487 8.4252C7.59487 8.4452 7.60144 8.48549 7.60144 8.52577L7.62144 13.6018C7.62829 14.0638 7.70201 14.2981 7.9363 14.5323C8.25115 14.8538 8.69315 14.8003 9.02115 14.4789C9.19544 14.3046 9.33601 14.0169 9.46315 13.7489L14.586 2.70006C14.8537 2.13777 14.8203 1.72234 14.546 1.44777C14.2777 1.18006 13.8626 1.14663 13.3003 1.41434L2.25115 6.5372C1.98315 6.66434 1.69544 6.80491 1.52115 6.9792C1.19972 7.3072 1.1463 7.74263 1.46772 8.06406" fill="#FF771C"/>
</svg>
