<svg width="24" height="24" viewBox="0 0 24 24" fill="none" xmlns="http://www.w3.org/2000/svg">
<path d="M16.9999 11.3054C16.9999 10.9594 16.9999 10.7864 17.0519 10.6324C17.2029 10.1844 17.6019 10.0114 18.0019 9.82937C18.4499 9.62437 18.6739 9.52237 18.8969 9.50437C19.1489 9.48437 19.4019 9.53837 19.6179 9.65937C19.9039 9.81937 20.1039 10.1254 20.3079 10.3734C21.2509 11.5194 21.7229 12.0924 21.8949 12.7234C22.0349 13.2334 22.0349 13.7674 21.8949 14.2764C21.6439 15.1984 20.8489 15.9704 20.2599 16.6864C19.9589 17.0514 19.8079 17.2344 19.6179 17.3414C19.3982 17.4632 19.1473 17.5172 18.8969 17.4964C18.6739 17.4784 18.4499 17.3764 18.0009 17.1714C17.6009 16.9894 17.2029 16.8164 17.0519 16.3684C16.9999 16.2144 16.9999 16.0414 16.9999 15.6954V11.3054ZM6.99991 11.3054C6.99991 10.8694 6.98791 10.4784 6.63591 10.1724C6.50791 10.0614 6.33791 9.98437 5.99891 9.82937C5.54991 9.62537 5.32591 9.52237 5.10291 9.50437C4.43591 9.45037 4.07691 9.90637 3.69291 10.3744C2.74891 11.5194 2.27691 12.0924 2.10391 12.7244C1.96471 13.2327 1.96471 13.7691 2.10391 14.2774C2.35591 15.1984 3.15191 15.9714 3.73991 16.6864C4.11091 17.1364 4.46591 17.5474 5.10291 17.4964C5.32591 17.4784 5.54991 17.3764 5.99891 17.1714C6.33891 17.0174 6.50791 16.9394 6.63591 16.8284C6.98791 16.5224 6.99991 16.1314 6.99991 15.6964V11.3054Z" stroke="#818B93" stroke-width="1.5" stroke-linecap="round" stroke-linejoin="round"/>
<path d="M5 8.83333C5 5.33522 8.134 2.5 12 2.5C15.866 2.5 19 5.33522 19 8.83333M19 18.2778V18.1222C19 19.9874 17.21 21.5 15 21.5H13" stroke="#818B93" stroke-width="1.5" stroke-linecap="round" stroke-linejoin="round"/>
</svg>
