<svg width="24" height="24" viewBox="0 0 24 24" fill="none" xmlns="http://www.w3.org/2000/svg">
<path d="M3.02835 14.2681C2.82689 15.5499 3.72758 16.4396 4.83037 16.883C9.05824 18.5829 14.9418 18.5829 19.1696 16.883C20.2724 16.4396 21.1731 15.5499 20.9717 14.2681C20.8478 13.4803 20.2356 12.8244 19.7821 12.1838C19.1879 11.3345 19.1289 10.4082 19.1288 9.42265C19.1288 5.61394 15.9371 2.52637 12 2.52637C8.06286 2.52637 4.87117 5.61394 4.87117 9.42265C4.87108 10.4082 4.81205 11.3345 4.21794 12.1838C3.76437 12.8244 3.15216 13.4803 3.02835 14.2681Z" stroke="#818B93" stroke-width="1.5" stroke-linecap="round" stroke-linejoin="round"/>
<path d="M9.15796 20.5264C9.91219 21.1155 10.9082 21.4737 12.0001 21.4737C13.0919 21.4737 14.0879 21.1155 14.8422 20.5264" stroke="#818B93" stroke-width="1.5" stroke-linecap="round" stroke-linejoin="round"/>
</svg>
