<svg width="32" height="32" viewBox="0 0 32 32" fill="none" xmlns="http://www.w3.org/2000/svg">
<path d="M7.70371 17.3212L9.48149 11.9158H22.5185L24.2963 17.3212M22.5185 23.3272C22.047 23.3272 21.5948 23.1374 21.2614 22.7995C20.9281 22.4616 20.7408 22.0033 20.7408 21.5254C20.7408 21.0476 20.9281 20.5893 21.2614 20.2514C21.5948 19.9135 22.047 19.7236 22.5185 19.7236C22.99 19.7236 23.4422 19.9135 23.7756 20.2514C24.109 20.5893 24.2963 21.0476 24.2963 21.5254C24.2963 22.0033 24.109 22.4616 23.7756 22.7995C23.4422 23.1374 22.99 23.3272 22.5185 23.3272ZM9.48149 23.3272C9.01 23.3272 8.55781 23.1374 8.22441 22.7995C7.89101 22.4616 7.70371 22.0033 7.70371 21.5254C7.70371 21.0476 7.89101 20.5893 8.22441 20.2514C8.55781 19.9135 9.01 19.7236 9.48149 19.7236C9.95299 19.7236 10.4052 19.9135 10.7386 20.2514C11.072 20.5893 11.2593 21.0476 11.2593 21.5254C11.2593 22.0033 11.072 22.4616 10.7386 22.7995C10.4052 23.1374 9.95299 23.3272 9.48149 23.3272ZM24.2015 11.3152C23.9645 10.6185 23.3007 10.114 22.5185 10.114H9.48149C8.69927 10.114 8.03557 10.6185 7.79853 11.3152L5.33334 18.5224V28.132C5.33334 28.4506 5.45821 28.7561 5.68048 28.9814C5.90274 29.2067 6.2042 29.3332 6.51853 29.3332H7.70371C8.01804 29.3332 8.3195 29.2067 8.54177 28.9814C8.76403 28.7561 8.8889 28.4506 8.8889 28.132V26.9308H23.1111V28.132C23.1111 28.4506 23.236 28.7561 23.4583 28.9814C23.6805 29.2067 23.982 29.3332 24.2963 29.3332H25.4815C25.7958 29.3332 26.0973 29.2067 26.3195 28.9814C26.5418 28.7561 26.6667 28.4506 26.6667 28.132V18.5224" fill="#F4F4F4"/>
<path d="M12.0618 7.17055C11.6798 7.38621 11.2464 7.49974 10.8053 7.49976C10.3642 7.49974 9.93079 7.38621 9.54876 7.17055C9.16672 6.9549 8.84948 6.64473 8.62891 6.27121H10.8053V3.81413H8.62891C8.84949 3.44063 9.16674 3.13048 9.54878 2.91485C9.93081 2.69921 10.3642 2.58569 10.8053 2.58569C11.2464 2.58569 11.6798 2.69921 12.0618 2.91485C12.4439 3.13048 12.7611 3.44063 12.9817 3.81413H22.1145C22.4478 3.81413 22.7674 3.94356 23.003 4.17396C23.2387 4.40436 23.3711 4.71684 23.3711 5.04267C23.3711 5.3685 23.2387 5.68098 23.003 5.91138C22.7674 6.14178 22.4478 6.27121 22.1145 6.27121H12.9817C12.7611 6.64473 12.4439 6.9549 12.0618 7.17055Z" fill="#F4F4F4"/>
</svg>
