<svg width="24" height="24" viewBox="0 0 24 24" fill="none" xmlns="http://www.w3.org/2000/svg">
<path d="M17.7102 7.24219C18.4473 7.39501 19.0034 7.65007 19.4503 8.07576C20.5653 9.13778 20.5653 10.8471 20.5653 14.2657C20.5653 17.6842 20.5653 19.3935 19.4503 20.4556C18.3353 21.5176 16.5408 21.5176 12.9517 21.5176H11.0484C7.4593 21.5176 5.66477 21.5176 4.54979 20.4556C3.43481 19.3935 3.43481 17.6842 3.43481 14.2657C3.43481 10.8471 3.43481 9.13778 4.54979 8.07576C4.99671 7.65007 5.55281 7.39501 6.28989 7.24219" stroke="#F4F4F4" stroke-width="1.5" stroke-linecap="round"/>
<path d="M12.0242 2.48351L12.0001 13.9033M12.0242 2.48351C11.8694 2.4771 11.7137 2.53241 11.575 2.64948C10.7123 3.37766 9.14502 5.27038 9.14502 5.27038M12.0242 2.48351C12.1629 2.48926 12.301 2.54464 12.4253 2.64963C13.2878 3.37795 14.8552 5.27038 14.8552 5.27038" stroke="#F4F4F4" stroke-width="1.5" stroke-linecap="round" stroke-linejoin="round"/>
</svg>
