<svg width="32" height="32" viewBox="0 0 32 32" fill="none" xmlns="http://www.w3.org/2000/svg">
<path d="M26.6666 16C26.6666 22.6276 24.2109 28 21.1804 28H12.0379C13.0655 27.3268 14.0006 26.14 14.6453 24.7312C15.68 22.4656 16.3046 19.3792 16.3046 16C16.3046 12.6208 15.68 9.5344 14.6453 7.2688C13.9994 5.8588 13.0643 4.672 12.0367 4H21.1792C24.2109 4 26.6666 9.3724 26.6666 16Z" fill="#FF771C"/>
<path fill-rule="evenodd" clip-rule="evenodd" d="M6.88591 7.7608C5.93776 9.8392 5.33331 12.7516 5.33331 16C5.33331 19.2484 5.93657 22.1608 6.88591 24.2392C7.8625 26.3728 9.08442 27.4 10.2092 27.4C11.3351 27.4 12.557 26.3728 13.5324 24.2392C14.4829 22.1608 15.085 19.2496 15.085 16C15.085 12.7504 14.4829 9.8392 13.5324 7.7608C12.557 5.6272 11.3351 4.6 10.2092 4.6C9.08324 4.6 7.8625 5.6272 6.88591 7.7608ZM8.38042 16C8.38042 19.9768 9.19939 23.2 10.2092 23.2C11.1419 23.2 11.9111 20.452 12.0237 16.9H10.8207C10.7022 16.9019 10.5845 16.8801 10.4744 16.8359C10.3642 16.7917 10.2638 16.7259 10.1788 16.6423C10.0938 16.5586 10.0259 16.4589 9.97906 16.3487C9.93221 16.2385 9.9073 16.12 9.90576 16C9.9073 15.88 9.93221 15.7615 9.97906 15.6513C10.0259 15.5411 10.0938 15.4414 10.1788 15.3578C10.2638 15.2741 10.3642 15.2083 10.4744 15.1641C10.5845 15.1199 10.7022 15.0981 10.8207 15.1H12.0249C11.9111 11.548 11.1419 8.8 10.2103 8.8C9.1982 8.8 8.38042 12.0232 8.38042 16Z" fill="#FF771C"/>
</svg>
