<svg width="12" height="12" viewBox="0 0 12 12" fill="none" xmlns="http://www.w3.org/2000/svg">
    <path d="M2.29993 5.97406C1.87332 5.23019 1.66733 4.62277 1.54313 4.00705C1.35943 3.09641 1.77981 2.20686 2.47622 1.63926C2.77055 1.39937 3.10795 1.48133 3.282 1.79358L3.67493 2.49851C3.98638 3.05725 4.1421 3.33663 4.11122 3.63282C4.08033 3.929 3.87032 4.17024 3.45029 4.6527L2.29993 5.97406ZM2.29993 5.97406C3.16343 7.47972 4.51853 8.83557 6.02594 9.70007M6.02594 9.70007C6.76981 10.1267 7.37723 10.3327 7.99295 10.4569C8.90359 10.6406 9.79314 10.2202 10.3607 9.52378C10.6006 9.22945 10.5187 8.89205 10.2064 8.718L9.50149 8.32507C8.94275 8.01362 8.66337 7.8579 8.36718 7.88878C8.07099 7.91967 7.82976 8.12968 7.3473 8.54971L6.02594 9.70007Z" stroke="#9FA7AD" stroke-linejoin="round"/>
    </svg>
    